<svg xmlns="http://www.w3.org/2000/svg" viewBox="0 0 24 24" width="24" height="24">
  <path fill="#FFFFFF" d="M12,1.8c-5.6,0-10.2,4.6-10.2,10.2c0,5.6,4.6,10.2,10.2,10.2s10.2-4.6,10.2-10.2C22.2,6.4,17.6,1.8,12,1.8z M14.2,16.2h-4.5v-1.2h1.2v-2.1H9.5v-1.2h1.2v-2.1H9.5V9.5h-1.2V8.3h4.5V16.2z M17.3,14.3v1.9c0,0.3-0.2,0.5-0.5,0.5H7.2c-0.3,0-0.5-0.2-0.5-0.5v-1.9c0-0.3,0.2-0.5,0.5-0.5h9.7C17.1,13.8,17.3,14,17.3,14.3z M17.3,10.1v1.9c0,0.3-0.2,0.5-0.5,0.5H7.2c-0.3,0-0.5-0.2-0.5-0.5V10.1c0-0.3,0.2-0.5,0.5-0.5h9.7C17.1,9.6,17.3,9.8,17.3,10.1z"/>
</svg>
